<svg version="1.1" id="Layer_1" xmlns="http://www.w3.org/2000/svg" xmlns:xlink="http://www.w3.org/1999/xlink" x="0px" y="0px"
	 width="100%" viewBox="0 0 1034 780" enable-background="new 0 0 1034 780" xml:space="preserve">
<path fill="#FFFFFF" opacity="1.000000" stroke="none" 
	d="
M522.000000,781.000000 
	C348.000000,781.000000 174.500000,781.000000 1.000000,781.000000 
	C1.000000,521.000000 1.000000,261.000000 1.000000,1.000000 
	C345.666656,1.000000 690.333313,1.000000 1035.000000,1.000000 
	C1035.000000,261.000000 1035.000000,521.000000 1035.000000,781.000000 
	C864.166687,781.000000 693.333313,781.000000 522.000000,781.000000 
M645.503052,382.999298 
	C670.661987,382.999298 695.823608,382.803101 720.977844,383.145233 
	C726.844177,383.225037 730.754150,382.374878 731.654785,375.874878 
	C731.859314,374.398865 732.873291,373.035004 734.156128,370.203766 
	C734.156128,375.372437 734.156128,379.063538 734.156128,382.645721 
	C753.356262,382.645721 772.078674,382.645721 790.603638,382.645721 
	C790.603638,375.891815 790.603638,369.497040 790.603638,363.000122 
	C758.885681,363.000122 727.563904,363.000092 696.242188,363.000092 
	C683.598450,363.000092 683.600220,363.000671 679.862000,375.169495 
	C679.806824,375.349213 679.489746,375.448547 678.985107,375.803009 
	C678.017151,373.291260 676.731140,370.983643 676.261902,368.520416 
	C675.311768,363.532318 672.283936,362.879211 667.794434,362.904663 
	C636.138550,363.084381 604.481079,363.000153 572.824158,363.000153 
	C571.035522,363.000153 569.246948,363.000153 567.265259,363.000153 
	C567.265259,369.838318 567.265259,376.228912 567.265259,382.698303 
	C586.255432,382.698303 604.978943,382.698303 623.980835,382.698303 
	C623.980835,378.491852 623.980835,374.578156 623.980835,370.341980 
	C626.112061,374.790192 627.057861,380.658386 630.278992,382.461151 
	C633.966431,384.524963 639.674927,382.977661 645.503052,382.999298 
M367.500000,311.997864 
	C415.925232,311.997864 464.350433,311.997864 513.862732,311.997864 
	C511.559326,306.199219 509.437317,301.170837 507.572510,296.048798 
	C506.395721,292.816528 504.445160,291.905212 500.993835,291.911804 
	C437.720245,292.032532 374.446320,292.000031 311.172485,292.000031 
	C309.565582,292.000031 307.958710,292.000031 306.314331,292.000031 
	C306.314331,298.944122 306.314331,305.332367 306.314331,311.997864 
	C326.585052,311.997864 346.542511,311.997864 367.500000,311.997864 
M357.500000,470.000000 
	C340.415527,470.000000 323.331024,470.000000 306.368134,470.000000 
	C306.368134,476.722290 306.368134,482.782593 306.368134,488.999878 
	C308.558044,488.999878 310.381927,488.999908 312.205780,488.999908 
	C361.844818,488.999908 411.483826,488.999908 461.122864,488.999908 
	C474.781921,488.999908 488.441864,489.071381 502.098938,488.906067 
	C503.745697,488.886169 506.270844,488.017761 506.860229,486.801697 
	C509.381012,481.600464 511.328735,476.121490 513.783752,470.000000 
	C461.351959,470.000000 409.925995,470.000000 357.500000,470.000000 
M368.500000,505.000702 
	C347.744476,505.000702 326.988953,505.000702 306.378998,505.000702 
	C306.378998,512.073547 306.378998,518.468445 306.378998,525.000000 
	C308.584839,525.000000 310.411957,525.000000 312.239075,525.000000 
	C354.567261,525.000000 396.895538,524.953857 439.223572,525.032898 
	C449.639282,525.052368 459.826111,523.842407 469.502228,519.941223 
	C477.758270,516.612610 485.715027,512.650574 492.233002,505.000702 
	C450.725983,505.000702 410.113007,505.000702 368.500000,505.000702 
M368.500000,257.000000 
	C347.758179,257.000000 327.016327,257.000000 306.351746,257.000000 
	C306.351746,263.692474 306.351746,269.750031 306.351746,275.624817 
	C368.308472,275.624817 429.912903,275.624817 492.434418,275.624817 
	C479.763336,264.779327 466.236267,257.555573 450.411407,257.177643 
	C423.454895,256.533905 396.471893,257.000122 368.500000,257.000000 
M455.500000,382.999268 
	C465.656097,382.999237 475.812256,383.014252 485.968231,382.980530 
	C487.259949,382.976227 489.015686,383.209595 489.768555,382.498535 
	C495.816498,376.786804 502.217346,371.308929 505.641571,363.298157 
	C451.334198,363.298157 397.324371,363.298157 343.335266,363.298157 
	C343.335266,369.990265 343.335266,376.379700 343.335266,382.999268 
	C380.613281,382.999268 417.556641,382.999268 455.500000,382.999268 
M456.500000,399.000000 
	C418.758484,399.000000 381.016968,399.000000 343.356812,399.000000 
	C343.356812,405.697418 343.356812,411.757050 343.356812,417.676453 
	C397.407623,417.676453 451.101410,417.676453 506.454865,417.676453 
	C502.645660,412.820892 499.519135,408.986328 496.560608,405.026184 
	C492.869446,400.085327 488.193451,398.415863 481.976440,398.858429 
	C473.855408,399.436554 465.662170,399.000000 456.500000,399.000000 
M284.322083,311.997650 
	C285.545959,311.185242 287.781067,310.428986 287.829773,309.551392 
	C288.148315,303.810852 287.993713,298.044098 287.993713,292.278931 
	C244.040421,292.278931 200.696136,292.278931 157.313538,292.278931 
	C157.313538,298.947693 157.313538,305.334137 157.313538,311.997833 
	C199.536850,311.997833 241.447021,311.997833 284.322083,311.997650 
M250.500000,505.000732 
	C219.410049,505.000732 188.320114,505.000732 157.382339,505.000732 
	C157.382339,512.079041 157.382339,518.475159 157.382339,524.750488 
	C201.039825,524.750488 244.314468,524.750488 287.705505,524.750488 
	C287.705505,518.105591 287.705505,511.712982 287.705505,505.000732 
	C275.442535,505.000732 263.471252,505.000732 250.500000,505.000732 
M287.999359,260.674072 
	C288.780579,256.718903 286.203156,256.974854 283.561462,256.976990 
	C242.458389,257.010284 201.355255,256.999756 160.252136,257.006989 
	C159.299927,257.007172 158.347702,257.096436 157.280487,257.149902 
	C157.280487,263.549622 157.280487,269.601624 157.280487,275.746765 
	C200.906219,275.746765 244.251068,275.746765 287.999634,275.746765 
	C287.999634,270.882263 287.999634,266.259888 287.999359,260.674072 
M161.638504,470.000031 
	C160.197342,470.079865 158.756165,470.159698 157.319763,470.239258 
	C157.319763,476.630432 157.319763,482.684265 157.319763,488.709351 
	C200.983765,488.709351 244.327347,488.709351 287.675720,488.709351 
	C287.675720,482.360840 287.675720,476.306702 287.675720,470.000000 
	C245.772903,470.000000 204.193497,470.000000 161.638504,470.000031 
M726.501770,292.000000 
	C721.676758,292.000214 716.844482,291.855316 712.031250,292.093506 
	C710.677063,292.160553 708.593933,293.042938 708.185486,294.079498 
	C706.012695,299.593781 704.265930,305.275909 702.177002,311.477875 
	C744.609924,311.477875 786.670654,311.477875 828.644531,311.477875 
	C828.644531,304.961151 828.644531,298.574402 828.644531,292.000000 
	C794.693359,292.000000 761.097168,292.000000 726.501770,292.000000 
M641.427185,292.000000 
	C604.370300,292.000000 567.313354,292.000000 530.364014,292.000000 
	C530.364014,299.046631 530.364014,305.436890 530.364014,311.682434 
	C572.423096,311.682434 614.117432,311.682434 656.360718,311.682434 
	C653.950317,304.888824 651.698303,298.541534 649.377319,292.000000 
	C647.038086,292.000000 644.718079,292.000000 641.427185,292.000000 
M731.502380,276.000031 
	C763.901672,276.000031 796.300903,276.000031 828.658752,276.000031 
	C828.658752,269.330444 828.658752,263.273163 828.658752,257.000641 
	C793.536865,257.000641 758.755493,256.976746 723.974609,257.098083 
	C722.733398,257.102386 720.816284,258.267242 720.374451,259.360260 
	C718.262939,264.583557 716.552246,269.968872 714.454346,276.000031 
	C720.299927,276.000031 725.402100,276.000031 731.502380,276.000031 
M579.500000,257.000000 
	C563.080750,257.000000 546.661438,257.000000 530.370239,257.000000 
	C530.370239,263.726044 530.370239,269.786652 530.370239,275.827789 
	C568.314331,275.827789 605.887939,275.827789 643.696289,275.827789 
	C642.074097,270.817688 640.436401,266.058197 639.006531,261.237030 
	C638.081116,258.116455 636.432251,256.876770 632.974670,256.913788 
	C615.484802,257.101196 597.991882,257.000000 579.500000,257.000000 
M623.999390,519.390137 
	C623.999390,514.644653 623.999390,509.899109 623.999390,505.342468 
	C592.251282,505.342468 561.237793,505.342468 530.371460,505.342468 
	C530.371460,512.075745 530.371460,518.461792 530.371460,524.829956 
	C561.638184,524.829956 592.533081,524.829956 623.751465,524.829956 
	C623.839539,523.242004 623.919434,521.801392 623.999390,519.390137 
M764.500000,525.000000 
	C785.923950,525.000000 807.347961,525.000000 828.616943,525.000000 
	C828.616943,517.921021 828.616943,511.524750 828.616943,505.250824 
	C797.292114,505.250824 766.350891,505.250824 735.294312,505.250824 
	C735.294312,511.896271 735.294312,518.288940 735.294312,525.000000 
	C744.890625,525.000000 754.195312,525.000000 764.500000,525.000000 
M649.480225,328.000000 
	C622.067566,328.000000 594.654846,328.000000 567.372559,328.000000 
	C567.372559,334.730835 567.372559,340.791779 567.372559,346.635620 
	C601.111145,346.635620 634.476196,346.635620 668.274048,346.635620 
	C667.415527,343.882263 666.715393,341.574066 665.976562,339.278320 
	C662.346619,327.998840 662.343018,328.000000 649.480225,328.000000 
M744.500000,328.000000 
	C729.688721,328.000031 714.877014,327.947601 700.066956,328.080902 
	C698.580933,328.094299 696.198120,328.867737 695.776367,329.912262 
	C693.575439,335.362915 691.874023,341.015228 689.958984,346.716125 
	C723.906250,346.716125 757.282959,346.716125 790.682129,346.716125 
	C790.682129,340.374176 790.682129,334.319855 790.682129,328.000000 
	C775.410522,328.000000 760.455261,328.000000 744.500000,328.000000 
M828.997742,472.709351 
	C829.352417,468.849731 826.437805,470.042023 824.598816,470.038513 
	C795.825317,469.983978 767.051636,469.999451 738.278015,470.006256 
	C737.324280,470.006470 736.370605,470.085114 735.267822,470.133789 
	C735.267822,476.527008 735.267822,482.576904 735.267822,488.756378 
	C766.549255,488.756378 797.562500,488.756378 828.999573,488.756378 
	C828.999573,483.573425 828.999573,478.623993 828.997742,472.709351 
M536.583679,470.000000 
	C534.486816,470.000000 532.389954,470.000000 530.333008,470.000000 
	C530.333008,476.663788 530.333008,482.715088 530.333008,488.693726 
	C561.678589,488.693726 592.690247,488.693726 623.663452,488.693726 
	C623.663452,482.330933 623.663452,476.278778 623.663452,470.000000 
	C594.741394,470.000000 566.154419,470.000000 536.583679,470.000000 
M647.517334,399.000000 
	C643.427185,399.000000 639.337036,399.000000 634.745605,399.000000 
	C637.092712,405.695312 639.217224,411.755646 641.405640,417.998230 
	C665.802551,417.998230 690.065430,418.025024 714.327759,417.918304 
	C715.530396,417.913025 717.448425,417.019745 717.809204,416.073334 
	C719.923157,410.527466 721.672546,404.842651 723.612854,399.000000 
	C698.387451,399.000000 673.450134,399.000000 647.517334,399.000000 
M483.500000,453.999268 
	C493.906250,453.999268 504.312531,453.999268 515.604736,453.999268 
	C514.699951,446.919617 513.885315,440.545624 513.087402,434.302399 
	C492.345978,434.302399 472.324463,434.302399 452.326050,434.302399 
	C452.326050,440.989594 452.326050,447.370087 452.326050,453.999268 
	C462.600037,453.999268 472.550018,453.999268 483.500000,453.999268 
M470.500641,347.000031 
	C484.587799,347.000031 498.674988,347.000031 513.042664,347.000031 
	C513.854614,340.499725 514.610168,334.450958 515.379822,328.289246 
	C493.691803,328.289246 473.010651,328.289246 452.312927,328.289246 
	C452.312927,334.630096 452.312927,340.675842 452.312927,347.000031 
	C458.249298,347.000031 463.875305,347.000031 470.500641,347.000031 
M657.846130,453.999207 
	C671.978821,453.999176 686.112000,454.054443 700.243408,453.921478 
	C701.814819,453.906677 704.338379,453.222839 704.782043,452.163269 
	C707.197449,446.394287 709.099243,440.410248 711.291870,434.175842 
	C689.656677,434.175842 668.594055,434.175842 647.251343,434.175842 
	C649.198853,440.015991 650.939392,445.761902 653.114075,451.338501 
	C653.582153,452.538818 655.617432,453.128052 657.846130,453.999207 
M623.999451,447.421082 
	C623.999451,443.011993 623.999451,438.602875 623.999451,434.333496 
	C604.609802,434.333496 585.924561,434.333496 567.356201,434.333496 
	C567.356201,441.053833 567.356201,447.434937 567.356201,453.660583 
	C586.398926,453.660583 605.083740,453.660583 623.999451,453.660583 
	C623.999451,451.678864 623.999451,450.034698 623.999451,447.421082 
M235.496552,434.000092 
	C221.771484,434.000092 208.046402,434.000092 194.312439,434.000092 
	C194.312439,440.964386 194.312439,447.343170 194.312439,453.708618 
	C213.308273,453.708618 231.990204,453.708618 250.687180,453.708618 
	C250.687180,447.035126 250.687180,440.657440 250.687180,434.000092 
	C245.750214,434.000092 241.122620,434.000092 235.496552,434.000092 
M378.499878,453.999298 
	C385.594269,453.999298 392.688660,453.999298 399.617065,453.999298 
	C399.617065,446.921265 399.617065,440.525238 399.617065,434.250244 
	C380.625153,434.250244 362.016937,434.250244 343.294434,434.250244 
	C343.294434,440.895660 343.294434,447.288300 343.294434,453.999298 
	C354.890656,453.999298 366.195312,453.999298 378.499878,453.999298 
M208.504974,382.999329 
	C222.562439,382.999329 236.619904,382.999329 250.686935,382.999329 
	C250.686935,376.035309 250.686935,369.656555 250.686935,363.290955 
	C231.691010,363.290955 213.008881,363.290955 194.312378,363.290955 
	C194.312378,369.964691 194.312378,376.342407 194.312378,382.999329 
	C198.915771,382.999329 203.212051,382.999329 208.504974,382.999329 
M764.500000,453.999298 
	C773.238770,453.999298 781.977478,453.999298 790.672119,453.999298 
	C790.672119,447.001923 790.672119,440.622986 790.672119,434.306213 
	C771.993347,434.306213 753.644165,434.306213 735.327454,434.306213 
	C735.327454,440.995789 735.327454,447.374725 735.327454,453.999298 
	C744.935303,453.999298 754.217651,453.999298 764.500000,453.999298 
M241.463181,417.999939 
	C244.557938,417.999939 247.652679,417.999939 250.662003,417.999939 
	C250.662003,411.317993 250.662003,405.270569 250.662003,399.315948 
	C231.640381,399.315948 212.957565,399.315948 194.338623,399.315948 
	C194.338623,405.684387 194.338623,411.731934 194.338623,417.999939 
	C209.942215,417.999939 225.208527,417.999939 241.463181,417.999939 
M205.518341,328.000000 
	C201.762344,328.000000 198.006348,328.000000 194.340500,328.000000 
	C194.340500,334.688812 194.340500,340.736267 194.340500,346.681244 
	C213.364883,346.681244 232.047348,346.681244 250.657867,346.681244 
	C250.657867,340.309998 250.657867,334.262634 250.657867,328.000000 
	C235.715836,328.000000 221.113800,328.000000 205.518341,328.000000 
M388.481659,347.000031 
	C392.237610,347.000031 395.993591,347.000031 399.659027,347.000031 
	C399.659027,340.310211 399.659027,334.263123 399.659027,328.318909 
	C380.634094,328.318909 361.951508,328.318909 343.341522,328.318909 
	C343.341522,334.690491 343.341522,340.738007 343.341522,347.000031 
	C358.283813,347.000031 372.886017,347.000031 388.481659,347.000031 
M567.002075,401.712372 
	C567.002075,407.112274 567.002075,412.512146 567.002075,417.620850 
	C586.480469,417.620850 605.167236,417.620850 623.772705,417.620850 
	C623.772705,411.309753 623.772705,405.380096 623.772705,399.014038 
	C605.319336,399.014038 587.088806,398.997009 568.858765,399.087341 
	C568.241638,399.090393 567.629822,400.174683 567.002075,401.712372 
M751.501892,417.999878 
	C764.561707,417.999878 777.621582,417.999878 790.686523,417.999878 
	C790.686523,411.366119 790.686523,405.321716 790.686523,399.291260 
	C772.022705,399.291260 753.673706,399.291260 735.313293,399.291260 
	C735.313293,405.632111 735.313293,411.678131 735.313293,417.999878 
	C740.583801,417.999878 745.543640,417.999878 751.501892,417.999878 
M685.345581,488.999878 
	C687.872498,488.376129 691.902222,488.501740 692.654480,486.993073 
	C695.282654,481.721985 696.778625,475.886414 698.705444,470.263458 
	C685.671753,470.263458 672.966614,470.263458 659.835510,470.263458 
	C662.120056,476.670288 664.273499,482.709534 666.516541,488.999878 
	C672.458679,488.999878 678.419678,488.999878 685.345581,488.999878 
M849.044861,516.086609 
	C850.217773,518.016846 851.003357,520.401245 852.635498,521.793030 
	C857.745544,526.150635 864.002014,526.408142 869.704224,523.900696 
	C875.243591,521.464783 877.333984,516.248657 877.058472,510.043152 
	C876.783875,503.857300 873.801147,498.590240 869.017212,496.484985 
	C862.962952,493.820648 857.491089,495.300720 852.606873,499.021881 
	C848.687927,502.007660 847.162781,510.129944 849.044861,516.086609 
M681.933533,518.275818 
	C683.263062,513.980286 684.592590,509.684723 685.992310,505.162506 
	C681.233215,505.162506 676.783875,505.162506 671.923645,505.162506 
	C674.323303,511.887817 676.623779,518.335205 679.224243,525.623413 
	C680.213928,522.769287 680.873230,520.868103 681.933533,518.275818 
z"/>
<path fill="#0F62FE" opacity="1.000000" stroke="none" 
	d="
M645.004150,382.999298 
	C639.674927,382.977661 633.966431,384.524963 630.278992,382.461151 
	C627.057861,380.658386 626.112061,374.790192 623.980835,370.341980 
	C623.980835,374.578156 623.980835,378.491852 623.980835,382.698303 
	C604.978943,382.698303 586.255432,382.698303 567.265259,382.698303 
	C567.265259,376.228912 567.265259,369.838318 567.265259,363.000153 
	C569.246948,363.000153 571.035522,363.000153 572.824158,363.000153 
	C604.481079,363.000153 636.138550,363.084381 667.794434,362.904663 
	C672.283936,362.879211 675.311768,363.532318 676.261902,368.520416 
	C676.731140,370.983643 678.017151,373.291260 678.985107,375.803009 
	C679.489746,375.448547 679.806824,375.349213 679.862000,375.169495 
	C683.600220,363.000671 683.598450,363.000092 696.242188,363.000092 
	C727.563904,363.000092 758.885681,363.000122 790.603638,363.000122 
	C790.603638,369.497040 790.603638,375.891815 790.603638,382.645721 
	C772.078674,382.645721 753.356262,382.645721 734.156128,382.645721 
	C734.156128,379.063538 734.156128,375.372437 734.156128,370.203766 
	C732.873291,373.035004 731.859314,374.398865 731.654785,375.874878 
	C730.754150,382.374878 726.844177,383.225037 720.977844,383.145233 
	C695.823608,382.803101 670.661987,382.999298 645.004150,382.999298 
z"/>
<path fill="#0F62FE" opacity="1.000000" stroke="none" 
	d="
M367.000000,311.997864 
	C346.542511,311.997864 326.585052,311.997864 306.314331,311.997864 
	C306.314331,305.332367 306.314331,298.944122 306.314331,292.000031 
	C307.958710,292.000031 309.565582,292.000031 311.172485,292.000031 
	C374.446320,292.000031 437.720245,292.032532 500.993835,291.911804 
	C504.445160,291.905212 506.395721,292.816528 507.572510,296.048798 
	C509.437317,301.170837 511.559326,306.199219 513.862732,311.997864 
	C464.350433,311.997864 415.925232,311.997864 367.000000,311.997864 
z"/>
<path fill="#0F62FE" opacity="1.000000" stroke="none" 
	d="
M358.000000,470.000000 
	C409.925995,470.000000 461.351959,470.000000 513.783752,470.000000 
	C511.328735,476.121490 509.381012,481.600464 506.860229,486.801697 
	C506.270844,488.017761 503.745697,488.886169 502.098938,488.906067 
	C488.441864,489.071381 474.781921,488.999908 461.122864,488.999908 
	C411.483826,488.999908 361.844818,488.999908 312.205780,488.999908 
	C310.381927,488.999908 308.558044,488.999878 306.368134,488.999878 
	C306.368134,482.782593 306.368134,476.722290 306.368134,470.000000 
	C323.331024,470.000000 340.415527,470.000000 358.000000,470.000000 
z"/>
<path fill="#0F62FE" opacity="1.000000" stroke="none" 
	d="
M369.000000,505.000702 
	C410.113007,505.000702 450.725983,505.000702 492.233002,505.000702 
	C485.715027,512.650574 477.758270,516.612610 469.502228,519.941223 
	C459.826111,523.842407 449.639282,525.052368 439.223572,525.032898 
	C396.895538,524.953857 354.567261,525.000000 312.239075,525.000000 
	C310.411957,525.000000 308.584839,525.000000 306.378998,525.000000 
	C306.378998,518.468445 306.378998,512.073547 306.378998,505.000702 
	C326.988953,505.000702 347.744476,505.000702 369.000000,505.000702 
z"/>
<path fill="#0F62FE" opacity="1.000000" stroke="none" 
	d="
M369.000000,257.000000 
	C396.471893,257.000122 423.454895,256.533905 450.411407,257.177643 
	C466.236267,257.555573 479.763336,264.779327 492.434418,275.624817 
	C429.912903,275.624817 368.308472,275.624817 306.351746,275.624817 
	C306.351746,269.750031 306.351746,263.692474 306.351746,257.000000 
	C327.016327,257.000000 347.758179,257.000000 369.000000,257.000000 
z"/>
<path fill="#0F62FE" opacity="1.000000" stroke="none" 
	d="
M455.000000,382.999268 
	C417.556641,382.999268 380.613281,382.999268 343.335266,382.999268 
	C343.335266,376.379700 343.335266,369.990265 343.335266,363.298157 
	C397.324371,363.298157 451.334198,363.298157 505.641571,363.298157 
	C502.217346,371.308929 495.816498,376.786804 489.768555,382.498535 
	C489.015686,383.209595 487.259949,382.976227 485.968231,382.980530 
	C475.812256,383.014252 465.656097,382.999237 455.000000,382.999268 
z"/>
<path fill="#0F62FE" opacity="1.000000" stroke="none" 
	d="
M457.000000,399.000000 
	C465.662170,399.000000 473.855408,399.436554 481.976440,398.858429 
	C488.193451,398.415863 492.869446,400.085327 496.560608,405.026184 
	C499.519135,408.986328 502.645660,412.820892 506.454865,417.676453 
	C451.101410,417.676453 397.407623,417.676453 343.356812,417.676453 
	C343.356812,411.757050 343.356812,405.697418 343.356812,399.000000 
	C381.016968,399.000000 418.758484,399.000000 457.000000,399.000000 
z"/>
<path fill="#0F62FE" opacity="1.000000" stroke="none" 
	d="
M283.839630,311.997742 
	C241.447021,311.997833 199.536850,311.997833 157.313538,311.997833 
	C157.313538,305.334137 157.313538,298.947693 157.313538,292.278931 
	C200.696136,292.278931 244.040421,292.278931 287.993713,292.278931 
	C287.993713,298.044098 288.148315,303.810852 287.829773,309.551392 
	C287.781067,310.428986 285.545959,311.185242 283.839630,311.997742 
z"/>
<path fill="#0F62FE" opacity="1.000000" stroke="none" 
	d="
M251.000000,505.000732 
	C263.471252,505.000732 275.442535,505.000732 287.705505,505.000732 
	C287.705505,511.712982 287.705505,518.105591 287.705505,524.750488 
	C244.314468,524.750488 201.039825,524.750488 157.382339,524.750488 
	C157.382339,518.475159 157.382339,512.079041 157.382339,505.000732 
	C188.320114,505.000732 219.410049,505.000732 251.000000,505.000732 
z"/>
<path fill="#0F62FE" opacity="1.000000" stroke="none" 
	d="
M287.999512,261.155792 
	C287.999634,266.259888 287.999634,270.882263 287.999634,275.746765 
	C244.251068,275.746765 200.906219,275.746765 157.280487,275.746765 
	C157.280487,269.601624 157.280487,263.549622 157.280487,257.149902 
	C158.347702,257.096436 159.299927,257.007172 160.252136,257.006989 
	C201.355255,256.999756 242.458389,257.010284 283.561462,256.976990 
	C286.203156,256.974854 288.780579,256.718903 287.999512,261.155792 
z"/>
<path fill="#0F62FE" opacity="1.000000" stroke="none" 
	d="
M162.126312,470.000000 
	C204.193497,470.000000 245.772903,470.000000 287.675720,470.000000 
	C287.675720,476.306702 287.675720,482.360840 287.675720,488.709351 
	C244.327347,488.709351 200.983765,488.709351 157.319763,488.709351 
	C157.319763,482.684265 157.319763,476.630432 157.319763,470.239258 
	C158.756165,470.159698 160.197342,470.079865 162.126312,470.000000 
z"/>
<path fill="#0F62FE" opacity="1.000000" stroke="none" 
	d="
M727.001343,292.000000 
	C761.097168,292.000000 794.693359,292.000000 828.644531,292.000000 
	C828.644531,298.574402 828.644531,304.961151 828.644531,311.477875 
	C786.670654,311.477875 744.609924,311.477875 702.177002,311.477875 
	C704.265930,305.275909 706.012695,299.593781 708.185486,294.079498 
	C708.593933,293.042938 710.677063,292.160553 712.031250,292.093506 
	C716.844482,291.855316 721.676758,292.000214 727.001343,292.000000 
z"/>
<path fill="#0F62FE" opacity="1.000000" stroke="none" 
	d="
M641.912598,292.000000 
	C644.718079,292.000000 647.038086,292.000000 649.377319,292.000000 
	C651.698303,298.541534 653.950317,304.888824 656.360718,311.682434 
	C614.117432,311.682434 572.423096,311.682434 530.364014,311.682434 
	C530.364014,305.436890 530.364014,299.046631 530.364014,292.000000 
	C567.313354,292.000000 604.370300,292.000000 641.912598,292.000000 
z"/>
<path fill="#0F62FE" opacity="1.000000" stroke="none" 
	d="
M731.003296,276.000031 
	C725.402100,276.000031 720.299927,276.000031 714.454346,276.000031 
	C716.552246,269.968872 718.262939,264.583557 720.374451,259.360260 
	C720.816284,258.267242 722.733398,257.102386 723.974609,257.098083 
	C758.755493,256.976746 793.536865,257.000641 828.658752,257.000641 
	C828.658752,263.273163 828.658752,269.330444 828.658752,276.000031 
	C796.300903,276.000031 763.901672,276.000031 731.003296,276.000031 
z"/>
<path fill="#0F62FE" opacity="1.000000" stroke="none" 
	d="
M580.000000,257.000000 
	C597.991882,257.000000 615.484802,257.101196 632.974670,256.913788 
	C636.432251,256.876770 638.081116,258.116455 639.006531,261.237030 
	C640.436401,266.058197 642.074097,270.817688 643.696289,275.827789 
	C605.887939,275.827789 568.314331,275.827789 530.370239,275.827789 
	C530.370239,269.786652 530.370239,263.726044 530.370239,257.000000 
	C546.661438,257.000000 563.080750,257.000000 580.000000,257.000000 
z"/>
<path fill="#0F62FE" opacity="1.000000" stroke="none" 
	d="
M623.999390,519.875488 
	C623.919434,521.801392 623.839539,523.242004 623.751465,524.829956 
	C592.533081,524.829956 561.638184,524.829956 530.371460,524.829956 
	C530.371460,518.461792 530.371460,512.075745 530.371460,505.342468 
	C561.237793,505.342468 592.251282,505.342468 623.999390,505.342468 
	C623.999390,509.899109 623.999390,514.644653 623.999390,519.875488 
z"/>
<path fill="#0F62FE" opacity="1.000000" stroke="none" 
	d="
M764.000000,525.000000 
	C754.195312,525.000000 744.890625,525.000000 735.294312,525.000000 
	C735.294312,518.288940 735.294312,511.896271 735.294312,505.250824 
	C766.350891,505.250824 797.292114,505.250824 828.616943,505.250824 
	C828.616943,511.524750 828.616943,517.921021 828.616943,525.000000 
	C807.347961,525.000000 785.923950,525.000000 764.000000,525.000000 
z"/>
<path fill="#0F62FE" opacity="1.000000" stroke="none" 
	d="
M649.974976,328.000000 
	C662.343018,328.000000 662.346619,327.998840 665.976562,339.278320 
	C666.715393,341.574066 667.415527,343.882263 668.274048,346.635620 
	C634.476196,346.635620 601.111145,346.635620 567.372559,346.635620 
	C567.372559,340.791779 567.372559,334.730835 567.372559,328.000000 
	C594.654846,328.000000 622.067566,328.000000 649.974976,328.000000 
z"/>
<path fill="#0F62FE" opacity="1.000000" stroke="none" 
	d="
M745.000000,328.000000 
	C760.455261,328.000000 775.410522,328.000000 790.682129,328.000000 
	C790.682129,334.319855 790.682129,340.374176 790.682129,346.716125 
	C757.282959,346.716125 723.906250,346.716125 689.958984,346.716125 
	C691.874023,341.015228 693.575439,335.362915 695.776367,329.912262 
	C696.198120,328.867737 698.580933,328.094299 700.066956,328.080902 
	C714.877014,327.947601 729.688721,328.000031 745.000000,328.000000 
z"/>
<path fill="#0F62FE" opacity="1.000000" stroke="none" 
	d="
M828.998657,473.191956 
	C828.999573,478.623993 828.999573,483.573425 828.999573,488.756378 
	C797.562500,488.756378 766.549255,488.756378 735.267822,488.756378 
	C735.267822,482.576904 735.267822,476.527008 735.267822,470.133789 
	C736.370605,470.085114 737.324280,470.006470 738.278015,470.006256 
	C767.051636,469.999451 795.825317,469.983978 824.598816,470.038513 
	C826.437805,470.042023 829.352417,468.849731 828.998657,473.191956 
z"/>
<path fill="#0F62FE" opacity="1.000000" stroke="none" 
	d="
M537.075562,470.000000 
	C566.154419,470.000000 594.741394,470.000000 623.663452,470.000000 
	C623.663452,476.278778 623.663452,482.330933 623.663452,488.693726 
	C592.690247,488.693726 561.678589,488.693726 530.333008,488.693726 
	C530.333008,482.715088 530.333008,476.663788 530.333008,470.000000 
	C532.389954,470.000000 534.486816,470.000000 537.075562,470.000000 
z"/>
<path fill="#0F62FE" opacity="1.000000" stroke="none" 
	d="
M648.015076,399.000000 
	C673.450134,399.000000 698.387451,399.000000 723.612854,399.000000 
	C721.672546,404.842651 719.923157,410.527466 717.809204,416.073334 
	C717.448425,417.019745 715.530396,417.913025 714.327759,417.918304 
	C690.065430,418.025024 665.802551,417.998230 641.405640,417.998230 
	C639.217224,411.755646 637.092712,405.695312 634.745605,399.000000 
	C639.337036,399.000000 643.427185,399.000000 648.015076,399.000000 
z"/>
<path fill="#0F62FE" opacity="1.000000" stroke="none" 
	d="
M483.000000,453.999268 
	C472.550018,453.999268 462.600037,453.999268 452.326050,453.999268 
	C452.326050,447.370087 452.326050,440.989594 452.326050,434.302399 
	C472.324463,434.302399 492.345978,434.302399 513.087402,434.302399 
	C513.885315,440.545624 514.699951,446.919617 515.604736,453.999268 
	C504.312531,453.999268 493.906250,453.999268 483.000000,453.999268 
z"/>
<path fill="#0F62FE" opacity="1.000000" stroke="none" 
	d="
M470.000977,347.000031 
	C463.875305,347.000031 458.249298,347.000031 452.312927,347.000031 
	C452.312927,340.675842 452.312927,334.630096 452.312927,328.289246 
	C473.010651,328.289246 493.691803,328.289246 515.379822,328.289246 
	C514.610168,334.450958 513.854614,340.499725 513.042664,347.000031 
	C498.674988,347.000031 484.587799,347.000031 470.000977,347.000031 
z"/>
<path fill="#0F62FE" opacity="1.000000" stroke="none" 
	d="
M657.388428,453.998962 
	C655.617432,453.128052 653.582153,452.538818 653.114075,451.338501 
	C650.939392,445.761902 649.198853,440.015991 647.251343,434.175842 
	C668.594055,434.175842 689.656677,434.175842 711.291870,434.175842 
	C709.099243,440.410248 707.197449,446.394287 704.782043,452.163269 
	C704.338379,453.222839 701.814819,453.906677 700.243408,453.921478 
	C686.112000,454.054443 671.978821,453.999176 657.388428,453.998962 
z"/>
<path fill="#0F62FE" opacity="1.000000" stroke="none" 
	d="
M623.999451,447.905823 
	C623.999451,450.034698 623.999451,451.678864 623.999451,453.660583 
	C605.083740,453.660583 586.398926,453.660583 567.356201,453.660583 
	C567.356201,447.434937 567.356201,441.053833 567.356201,434.333496 
	C585.924561,434.333496 604.609802,434.333496 623.999451,434.333496 
	C623.999451,438.602875 623.999451,443.011993 623.999451,447.905823 
z"/>
<path fill="#0F62FE" opacity="1.000000" stroke="none" 
	d="
M235.995789,434.000092 
	C241.122620,434.000092 245.750214,434.000092 250.687180,434.000092 
	C250.687180,440.657440 250.687180,447.035126 250.687180,453.708618 
	C231.990204,453.708618 213.308273,453.708618 194.312439,453.708618 
	C194.312439,447.343170 194.312439,440.964386 194.312439,434.000092 
	C208.046402,434.000092 221.771484,434.000092 235.995789,434.000092 
z"/>
<path fill="#0F62FE" opacity="1.000000" stroke="none" 
	d="
M377.999939,453.999298 
	C366.195312,453.999298 354.890656,453.999298 343.294434,453.999298 
	C343.294434,447.288300 343.294434,440.895660 343.294434,434.250244 
	C362.016937,434.250244 380.625153,434.250244 399.617065,434.250244 
	C399.617065,440.525238 399.617065,446.921265 399.617065,453.999298 
	C392.688660,453.999298 385.594269,453.999298 377.999939,453.999298 
z"/>
<path fill="#0F62FE" opacity="1.000000" stroke="none" 
	d="
M208.006653,382.999329 
	C203.212051,382.999329 198.915771,382.999329 194.312378,382.999329 
	C194.312378,376.342407 194.312378,369.964691 194.312378,363.290955 
	C213.008881,363.290955 231.691010,363.290955 250.686935,363.290955 
	C250.686935,369.656555 250.686935,376.035309 250.686935,382.999329 
	C236.619904,382.999329 222.562439,382.999329 208.006653,382.999329 
z"/>
<path fill="#0F62FE" opacity="1.000000" stroke="none" 
	d="
M764.000000,453.999298 
	C754.217651,453.999298 744.935303,453.999298 735.327454,453.999298 
	C735.327454,447.374725 735.327454,440.995789 735.327454,434.306213 
	C753.644165,434.306213 771.993347,434.306213 790.672119,434.306213 
	C790.672119,440.622986 790.672119,447.001923 790.672119,453.999298 
	C781.977478,453.999298 773.238770,453.999298 764.000000,453.999298 
z"/>
<path fill="#0F62FE" opacity="1.000000" stroke="none" 
	d="
M240.968994,417.999939 
	C225.208527,417.999939 209.942215,417.999939 194.338623,417.999939 
	C194.338623,411.731934 194.338623,405.684387 194.338623,399.315948 
	C212.957565,399.315948 231.640381,399.315948 250.662003,399.315948 
	C250.662003,405.270569 250.662003,411.317993 250.662003,417.999939 
	C247.652679,417.999939 244.557938,417.999939 240.968994,417.999939 
z"/>
<path fill="#0F62FE" opacity="1.000000" stroke="none" 
	d="
M206.015045,328.000000 
	C221.113800,328.000000 235.715836,328.000000 250.657867,328.000000 
	C250.657867,334.262634 250.657867,340.309998 250.657867,346.681244 
	C232.047348,346.681244 213.364883,346.681244 194.340500,346.681244 
	C194.340500,340.736267 194.340500,334.688812 194.340500,328.000000 
	C198.006348,328.000000 201.762344,328.000000 206.015045,328.000000 
z"/>
<path fill="#0F62FE" opacity="1.000000" stroke="none" 
	d="
M387.984955,347.000031 
	C372.886017,347.000031 358.283813,347.000031 343.341522,347.000031 
	C343.341522,340.738007 343.341522,334.690491 343.341522,328.318909 
	C361.951508,328.318909 380.634094,328.318909 399.659027,328.318909 
	C399.659027,334.263123 399.659027,340.310211 399.659027,347.000031 
	C395.993591,347.000031 392.237610,347.000031 387.984955,347.000031 
z"/>
<path fill="#0F62FE" opacity="1.000000" stroke="none" 
	d="
M567.008789,401.233704 
	C567.629822,400.174683 568.241638,399.090393 568.858765,399.087341 
	C587.088806,398.997009 605.319336,399.014038 623.772705,399.014038 
	C623.772705,405.380096 623.772705,411.309753 623.772705,417.620850 
	C605.167236,417.620850 586.480469,417.620850 567.002075,417.620850 
	C567.002075,412.512146 567.002075,407.112274 567.008789,401.233704 
z"/>
<path fill="#0F62FE" opacity="1.000000" stroke="none" 
	d="
M751.002686,417.999878 
	C745.543640,417.999878 740.583801,417.999878 735.313293,417.999878 
	C735.313293,411.678131 735.313293,405.632111 735.313293,399.291260 
	C753.673706,399.291260 772.022705,399.291260 790.686523,399.291260 
	C790.686523,405.321716 790.686523,411.366119 790.686523,417.999878 
	C777.621582,417.999878 764.561707,417.999878 751.002686,417.999878 
z"/>
<path fill="#0F62FE" opacity="1.000000" stroke="none" 
	d="
M684.863098,488.999878 
	C678.419678,488.999878 672.458679,488.999878 666.516541,488.999878 
	C664.273499,482.709534 662.120056,476.670288 659.835510,470.263458 
	C672.966614,470.263458 685.671753,470.263458 698.705444,470.263458 
	C696.778625,475.886414 695.282654,481.721985 692.654480,486.993073 
	C691.902222,488.501740 687.872498,488.376129 684.863098,488.999878 
z"/>
<path fill="#0F62FE" opacity="1.000000" stroke="none" 
	d="
M849.016052,515.676147 
	C847.162781,510.129944 848.687927,502.007660 852.606873,499.021881 
	C857.491089,495.300720 862.962952,493.820648 869.017212,496.484985 
	C873.801147,498.590240 876.783875,503.857300 877.058472,510.043152 
	C877.333984,516.248657 875.243591,521.464783 869.704224,523.900696 
	C864.002014,526.408142 857.745544,526.150635 852.635498,521.793030 
	C851.003357,520.401245 850.217773,518.016846 849.016052,515.676147 
M870.729309,517.759521 
	C871.486206,515.188049 872.747925,512.645020 872.894775,510.039154 
	C873.199219,504.635529 869.516907,500.286041 864.349487,499.138458 
	C860.561707,498.297211 854.819702,501.542175 853.249329,505.411407 
	C850.886902,511.232239 852.367859,516.497192 857.296692,519.799866 
	C861.238159,522.440857 866.360718,521.685669 870.050720,517.954956 
	C870.050720,517.954956 870.012695,518.003357 870.729309,517.759521 
z"/>
<path fill="#0F62FE" opacity="1.000000" stroke="none" 
	d="
M681.733032,518.621338 
	C680.873230,520.868103 680.213928,522.769287 679.224243,525.623413 
	C676.623779,518.335205 674.323303,511.887817 671.923645,505.162506 
	C676.783875,505.162506 681.233215,505.162506 685.992310,505.162506 
	C684.592590,509.684723 683.263062,513.980286 681.733032,518.621338 
z"/>
<path fill="#FFFFFF" opacity="1.000000" stroke="none" 
	d="
M870.095764,517.912903 
	C866.360718,521.685669 861.238159,522.440857 857.296692,519.799866 
	C852.367859,516.497192 850.886902,511.232239 853.249329,505.411407 
	C854.819702,501.542175 860.561707,498.297211 864.349487,499.138458 
	C869.516907,500.286041 873.199219,504.635529 872.894775,510.039154 
	C872.747925,512.645020 871.486206,515.188049 870.272278,517.545410 
	C869.229614,515.363647 867.710144,513.098450 868.225342,511.481537 
	C870.119751,505.536255 868.729736,503.034515 862.688110,503.001404 
	C860.921692,502.991730 859.155151,502.999939 857.221069,502.999939 
	C857.221069,508.228088 857.221069,512.954224 857.221069,517.554260 
	C862.571411,519.765259 860.085571,514.342468 862.492249,512.197632 
	C863.390320,516.883606 865.845703,518.945374 870.095764,517.912903 
z"/>
<path fill="#0F62FE" opacity="1.000000" stroke="none" 
	d="
M870.073242,517.933960 
	C865.845703,518.945374 863.390320,516.883606 862.492249,512.197632 
	C860.085571,514.342468 862.571411,519.765259 857.221069,517.554260 
	C857.221069,512.954224 857.221069,508.228088 857.221069,502.999939 
	C859.155151,502.999939 860.921692,502.991730 862.688110,503.001404 
	C868.729736,503.034515 870.119751,505.536255 868.225342,511.481537 
	C867.710144,513.098450 869.229614,515.363647 869.913940,517.667358 
	C870.012695,518.003357 870.050720,517.954956 870.073242,517.933960 
z"/>
</svg>